<?xml version="1.0" standalone="no"?>
<!DOCTYPE svg PUBLIC "-//W3C//DTD SVG 1.1//EN" "http://www.w3.org/Graphics/SVG/1.1/DTD/svg11.dtd" >
<svg xmlns="http://www.w3.org/2000/svg">
<metadata>Generated by IcoMoon</metadata>
<defs>
<font id="icomoon" horiz-adv-x="512">
<font-face units-per-em="1024" ascent="960" descent="-64" />
<missing-glyph horiz-adv-x="1024" />
<glyph unicode="&#x20;" d="" horiz-adv-x="512" />
<glyph unicode="&#xe600;" d="M722.101 480.065l19.394 0.129-505.923 479.806-179.2-172.865 313.665-307.071-313.665-307.329 179.2-179.2 505.923 486.659z" horiz-adv-x="791" />
<glyph unicode="&#xe601;" d="M68.899 415.935l-19.394-0.129 505.923-479.806 179.2 172.865-313.665 307.071 313.665 307.329-179.2 179.2-505.923-486.659z" horiz-adv-x="791" />
<glyph unicode="&#xe602;" d="M491.565 121.399l0.129-19.394 479.806 505.923-172.865 179.2-307.071-313.665-307.329 313.665-179.2-179.2 486.659-505.923z" horiz-adv-x="983" />
<glyph unicode="&#xe603;" d="M491.435 774.601l-0.129 19.394-479.806-505.923 172.865-179.2 307.071 313.665 307.329-313.665 179.2 179.2-486.659 505.923z" horiz-adv-x="983" />
<glyph unicode="&#xe800;" d="M0 59.904l331.776 350.208 180.224-102.4 180.224 102.4 331.776-350.208h-1024zM0 176.64v423.936l260.096-150.528zM0 691.712v144.384h1024v-144.384l-512-291.84zM763.904 450.048l260.096 150.528v-423.936z" />
<glyph unicode="&#xe801;" d="M0-64v159.744q0 24.576 59.392 59.392t162.816 72.704q101.376 35.84 140.288 74.752t37.888 103.424q0 29.696-27.648 73.728t-32.768 60.416q-12.288 35.84-29.696 138.24-10.24 53.248-14.336 95.232-2.048 22.528 6.144 51.2t28.672 61.44 68.608 52.224 112.64 21.504 112.64-21.504 68.608-52.224 28.672-61.44 6.144-51.2q-4.096-41.984-14.336-95.232-17.408-102.4-29.696-138.24-6.144-16.384-32.768-60.416t-27.648-73.728q0-65.536 37.888-103.424t140.288-74.752q222.208-81.92 222.208-132.096v-159.744h-1024z" />
<glyph unicode="&#xe802;" d="M0 719.36q0 51.2 28.672 77.824l141.312 141.312q46.080 37.888 78.848-13.312l115.712-216.064q18.432-39.936-14.336-72.704l-52.224-53.248q-5.12-6.144-5.12-14.336 25.6-100.352 135.168-199.68l31.744-30.72t36.864-34.816 34.816-26.624 41.984-25.6 40.96-14.336q20.48-6.144 27.648 2.048l62.464 61.44q39.936 30.72 73.728 12.288l207.872-123.904q22.528-14.336 25.6-37.888t-13.312-39.936l-144.384-142.336q-27.648-27.648-75.776-27.648-143.36 4.096-325.632 123.904-264.192 189.44-384 415.744-73.728 154.624-68.608 238.592z" horiz-adv-x="1012" />
<glyph unicode="&#xe803;" d="M0-64v690.176h346.112v333.824h379.904v-1024h-726.016zM0 710.144v63.488l193.536 186.368h66.56v-249.856h-260.096z" horiz-adv-x="726" />
<glyph unicode="&#xe804;" d="M0-64v664.576h914.432v-664.576h-914.432zM0 657.92v226.304h111.616v-144.384h204.8v144.384h281.6v-144.384h203.776v144.384h112.64v-226.304h-914.432zM172.032 800.256v159.744h83.968v-159.744h-83.968zM232.448 166.4q0-114.688 125.952-114.688 48.128 0 86.016 32.768 39.936 31.744 39.936 81.92 0 69.632-79.872 92.16 49.152 15.36 65.536 49.152 12.288 28.672-2.048 74.752-27.648 63.488-109.568 63.488-52.224 0-88.064-26.624t-37.888-78.848h73.728q0 46.080 50.176 47.104 44.032 0 46.080-53.248 0-50.176-86.016-48.128v-58.368q49.152 0 69.632-8.192 23.552-11.264 23.552-47.104 0-58.368-55.296-62.464-44.032 0-48.128 56.32h-73.728zM520.192 315.904q50.176 14.336 90.112 48.128v-304.128h71.68v379.904h-65.536q-38.912-37.888-96.256-59.392v-64.512zM658.432 800.256v159.744h83.968v-159.744h-83.968z" horiz-adv-x="914" />
<glyph unicode="&#xe805;" d="M0 108.032v679.936h1024v-679.936h-1024zM64.512 172.544h894.976v303.104h-894.976v-303.104zM64.512 622.080h894.976v102.4h-894.976v-102.4zM125.952 252.416q0 13.312 5.12 21.504t15.36 8.192 14.336-8.192 5.12-21.504-5.12-22.528-14.336-8.192-15.36 8.192-5.12 22.528zM134.144 252.416q0-12.288 3.072-18.432t9.216-6.144 8.192 6.144 3.072 18.432-3.072 17.408-8.192 6.144-9.216-6.144-3.072-17.408zM178.176 252.416q0 13.312 5.12 21.504t14.336 8.192 15.36-8.192 5.12-21.504-5.12-22.528-15.36-8.192-14.336 8.192-5.12 22.528zM186.368 252.416q0-12.288 3.072-18.432t8.192-6.144 9.216 6.144 3.072 18.432-3.072 17.408-9.216 6.144-8.192-6.144-3.072-17.408zM228.352 252.416q0 13.312 5.12 21.504t14.336 8.192 15.36-8.192 5.12-21.504-5.12-22.528-15.36-8.192-14.336 8.192-5.12 22.528zM236.544 252.416q0-12.288 2.048-18.432t9.216-6.144 9.216 6.144 3.072 18.432-3.072 17.408-9.216 6.144-9.216-6.144-2.048-17.408zM279.552 252.416q0 13.312 5.12 21.504t15.36 8.192 15.36-8.192 5.12-21.504-5.12-22.528-15.36-8.192-15.36 8.192-5.12 22.528zM287.744 252.416q0-12.288 3.072-18.432t9.216-6.144 9.216 6.144 3.072 18.432-3.072 17.408-9.216 6.144-9.216-6.144-3.072-17.408zM327.68 242.176v6.144h22.528v-6.144h-22.528zM360.448 252.416q0 13.312 4.096 21.504t15.36 8.192 15.36-8.192 5.12-21.504-5.12-22.528-15.36-8.192-15.36 8.192-4.096 22.528zM367.616 252.416q0-12.288 3.072-18.432t9.216-6.144 9.216 6.144 3.072 18.432-3.072 17.408-9.216 6.144-9.216-6.144-3.072-17.408zM409.6 252.416q0 13.312 5.12 21.504t15.36 8.192 15.36-8.192 4.096-21.504-4.096-22.528-15.36-8.192-15.36 8.192-5.12 22.528zM417.792 252.416q0-12.288 3.072-18.432t9.216-6.144 9.216 6.144 3.072 18.432-3.072 17.408-9.216 6.144-9.216-6.144-3.072-17.408zM459.776 252.416q0 13.312 6.144 21.504t15.36 8.192 14.336-8.192 6.144-21.504-6.144-22.528-14.336-8.192-15.36 8.192-6.144 22.528zM467.968 252.416q0-12.288 4.096-18.432t10.24-6.144 9.216 6.144 2.048 18.432-2.048 17.408-9.216 6.144-10.24-6.144-4.096-17.408zM512 252.416q0 13.312 5.12 21.504t15.36 8.192 14.336-8.192 5.12-21.504-5.12-22.528-14.336-8.192-15.36 8.192-5.12 22.528zM520.192 252.416q0-12.288 3.072-18.432t9.216-6.144 8.192 6.144 3.072 18.432-3.072 17.408-8.192 6.144-9.216-6.144-3.072-17.408z" />
<glyph unicode="&#xe806;" d="M288.564 280.59l-291.137 292.377h583.513z" horiz-adv-x="594" />
<glyph unicode="&#xe807;" d="M0 927.175h1024l-430.080-430.080v-421.888h159.744v-92.16h-481.28v92.16h157.696v421.888z" />
<glyph unicode="&#xe808;" d="M0 119.296v72.704q0 15.36 11.264 25.6t25.6 11.264h803.84q15.36 0 26.624-11.264t10.24-25.6v-72.704q0-15.36-10.24-26.624t-26.624-10.24h-803.84q-15.36 0-25.6 10.24t-11.264 26.624zM0 411.136v73.728q0 14.336 11.264 25.6t25.6 10.24h803.84q15.36 0 26.624-10.24t10.24-25.6v-73.728q0-14.336-10.24-25.6t-26.624-10.24h-803.84q-15.36 0-25.6 10.24t-11.264 25.6zM0 704v72.704q0 15.36 11.264 26.624t25.6 10.24h803.84q15.36 0 26.624-10.24t10.24-26.624v-72.704q0-15.36-10.24-25.6t-26.624-11.264h-803.84q-15.36 0-25.6 11.264t-11.264 25.6z" horiz-adv-x="878" />
<glyph unicode="&#xe809;" d="M272.41 439.564l-292.377-291.137v583.513z" horiz-adv-x="274" />
<glyph unicode="&#xe80a;" d="M1.59 439.564l292.377-291.137v583.513z" horiz-adv-x="274" />
<glyph unicode="&#xe80b;" d="M0-64v1024h1024v-1024h-1024zM136.192 550.4q2.048-4.096 8.192-12.288t7.168-10.24q12.288-12.288 38.912-4.096 25.6 10.24 41.984 9.216t29.696-26.624q27.648-75.776 75.776-258.048 31.744-104.448 77.824-123.904 26.624-6.144 53.248 0t47.104 17.408q121.856 77.824 218.112 244.736 2.048 3.072 26.624 51.2t33.792 70.656 23.552 61.44 12.288 69.632-18.432 48.128q-54.272 41.984-110.592 27.648t-103.424-59.392-63.488-96.256q49.152 0 59.392-4.096 29.696-15.36 25.6-65.536-11.264-52.224-37.888-102.4t-59.392-55.296q-14.336 0-30.72 17.408-19.456 24.576-27.648 51.2t-13.312 72.704-6.144 56.32q0 2.048-5.12 31.744t-8.192 43.008-11.264 35.84-19.456 36.864-28.672 18.432q-67.584 10.24-159.744-75.776-37.888-33.792-75.776-66.56v-3.072z" />
<glyph unicode="&#xe80c;" d="M0-64v1024h1024v-1024h-1024zM482.304 416.256h94.208v-360.448h135.168v360.448h132.096l6.144 130.048h-138.24v96.256q0 31.744 12.288 44.032t41.984 13.312h81.92l2.048 119.808q-60.416 6.144-90.112 6.144h-23.552q-31.744 0-58.368-10.24-101.376-39.936-101.376-157.696v-111.616h-94.208v-130.048z" />
<glyph unicode="&#xe80d;" d="M0 116.224q165.888-19.456 312.32 90.112-68.608-2.048-119.808 39.936t-78.848 107.52q18.432-3.072 44.032-1.024 34.816 1.024 50.176 5.12-101.376 34.816-142.336 110.592-23.552 52.224-23.552 105.472 58.368-29.696 94.208-27.648-81.92 69.632-92.16 149.504-6.144 64.512 25.6 138.24 116.736-128 244.736-184.32 95.232-39.936 189.44-39.936-12.288 96.256 26.624 162.816 46.080 71.68 131.072 95.232 56.32 14.336 108.544-3.072t88.064-56.32q61.44 6.144 136.192 50.176-30.72-88.064-94.208-120.832 63.488 10.24 123.904 36.864-10.24-20.48-37.888-54.272t-69.632-58.368q1.024-10.24 1.024-17.408 4.096-112.64-43.008-238.592-82.944-205.824-248.832-309.248-163.84-92.16-391.168-70.656-144.384 16.384-234.496 90.112z" />
<glyph unicode="&#xe80e;" d="M2.048 713.216q12.288 91.136 76.8 156.672 69.632 66.56 163.84 75.776t174.080-37.888q113.664 18.432 224.256-17.408t189.44-114.688q136.192-141.312 138.24-331.776 0-52.224-10.24-102.4 27.648-57.344 27.648-121.856-4.096-113.664-79.872-191.488-86.016-79.872-193.536-79.872-70.656 0-128 31.744-142.336-23.552-270.336 29.696-176.128 77.824-251.904 249.856-54.272 144.384-25.6 278.528-46.080 83.968-34.816 175.104zM218.112 309.76q4.096-50.176 35.84-91.136t72.704-62.464q169.984-70.656 315.392-10.24 58.368 24.576 93.184 71.68t34.816 106.496q2.048 107.52-107.52 157.696-48.128 20.48-92.16 31.744-15.36 4.096-57.344 13.312t-64.512 15.36q-25.6 8.192-50.176 24.576t-23.552 38.912q4.096 36.864 37.888 50.176t73.728 16.384q75.776 2.048 119.808-72.704 16.384-25.6 30.72-37.888t37.888-11.264q27.648 2.048 48.128 20.48t19.456 45.056q-4.096 54.272-43.008 90.112t-95.232 54.272q-137.216 33.792-247.808-8.192-56.32-20.48-89.088-63.488t-34.816-94.208q2.048-46.080 23.552-81.92t59.392-55.296 71.68-31.744 79.872-21.504q55.296-12.288 88.064-21.504 67.584-24.576 67.584-72.704 0-35.84-35.84-59.392-94.208-46.080-161.792-12.288-41.984 19.456-68.608 77.824-23.552 54.272-67.584 56.32-28.672-2.048-48.128-20.48t-22.528-41.984z" horiz-adv-x="986" />
<glyph unicode="&#xe810;" d="M0-64v1024h1024v-1024h-1024zM167.936 682.496q2.048-34.816 25.6-55.296t54.272-23.552h2.048q35.84 2.048 60.416 24.576t23.552 54.272q-2.048 33.792-25.6 54.272t-56.32 21.504q-35.84 0-59.392-22.528t-24.576-53.248zM176.128 99.84h147.456v444.416h-147.456v-444.416zM406.528 99.84h147.456v247.808q0 24.576 4.096 36.864 27.648 53.248 75.776 53.248 73.728-2.048 73.728-99.328v-238.592h148.48v253.952q-2.048 100.352-48.128 152.576-48.128 48.128-121.856 50.176-54.272-2.048-88.064-26.624-21.504-15.36-44.032-48.128v62.464h-147.456q1.024-18.432 1.024-71.68 0-92.16-1.024-372.736z" />
<glyph unicode="&#xe811;" d="M0-64v128q52.224 60.416 146.432 77.824 83.968 12.288 107.52 12.288 18.432 0 35.84-2.048 14.336-12.288 64.512-46.080t73.728-56.32q56.32-48.128 56.32-97.28 0-10.24-2.048-16.384h-482.304zM0 147.968v260.096q92.16-67.584 207.872-52.224-27.648-69.632 2.048-117.76 14.336-21.504 29.696-44.032h-51.2q-134.144-4.096-188.416-46.080zM0 779.776v180.224h1024v-277.504h-188.416v189.44h-81.92v-189.44h-189.44v-78.848h189.44v-191.488h81.92v191.488h188.416v-667.648h-453.632q19.456 73.728-6.144 134.144-26.624 58.368-86.016 109.568-28.672 24.576-104.448 83.968-39.936 28.672-39.936 64.512 2.048 31.744 41.984 73.728 58.368 44.032 83.968 83.968 35.84 54.272 35.84 128 0 68.608-31.744 121.856-19.456 32.768-57.344 68.608h89.088l83.968 67.584h-313.344q-75.776-2.048-148.48-24.576t-117.76-67.584zM60.416 718.336q13.312 59.392 71.68 88.064 25.6 11.264 56.32 13.312 46.080 0 81.92-27.648 69.632-58.368 93.184-157.696 20.48-79.872 2.048-132.096-23.552-68.608-75.776-81.92-79.872-22.528-136.192 15.36-65.536 52.224-88.064 144.384-15.36 69.632-5.12 138.24z" />
<glyph unicode="&#xe812;" d="M959.326 142.522l-317.979 323.368 317.979 323.368-150.905 145.516-312.589-323.368-317.979 317.979-145.516-145.516 317.979-323.368-317.979-323.368 150.905-145.516 312.589 323.368 317.979-317.979z" horiz-adv-x="970" />
<glyph unicode="&#xe813;" d="M435.2 857.6c-230.4 0-409.6-179.2-409.6-409.6s179.2-409.6 409.6-409.6 409.6 179.2 409.6 409.6-179.2 409.6-409.6 409.6zM1664 857.6c-230.4 0-409.6-179.2-409.6-409.6s179.2-409.6 409.6-409.6 409.6 179.2 409.6 409.6-179.2 409.6-409.6 409.6zM2892.8 857.6c-230.4 0-409.6-179.2-409.6-409.6s179.2-409.6 409.6-409.6 409.6 179.2 409.6 409.6-179.2 409.6-409.6 409.6z" horiz-adv-x="3328" />
<glyph unicode="&#xe814;" d="M1.024 80.327q-8.192 58.368 38.912 105.472t120.832 58.368q65.536 10.24 121.856-17.408l25.6 667.648 706.56 54.272q-32.768-744.448-34.816-774.144-1.024-52.224-46.080-93.184t-111.616-51.2q-73.728-10.24-132.096 22.528t-65.536 91.136 37.888 107.52 119.808 59.392q69.632 9.216 128-22.528l25.6 476.16-551.936-56.32-5.12-134.144q-6.144-134.144-12.288-283.648t-8.192-180.224v-6.144q-6.144-51.2-50.176-91.136t-109.568-48.128q-71.68-10.24-130.048 23.552t-67.584 92.16z" horiz-adv-x="1015" />
<glyph unicode="&#xe816;" d="M0 104.903l190.464 190.464h2.048q-68.608 107.52-68.608 233.472 0 182.272 128 310.272t310.272 128 310.272-128 128-310.272-128-309.248-310.272-128q-108.544 0-201.728 49.152l-198.656-197.632zM318.464 529.863q0-100.352 71.68-172.032t172.032-70.656 172.032 70.656 71.68 172.032-71.68 172.032-172.032 71.68-172.032-71.68-71.68-172.032z" horiz-adv-x="1000" />
<glyph unicode="&#xe818;" d="M1.024 641.479q7.168 113.664 76.8 187.392 96.256 81.92 217.088 71.68t194.56-100.352q38.912 50.176 94.208 80.896 115.712 44.032 222.208 3.072t153.6-143.36q30.72-108.544 10.24-203.776t-79.872-178.176q-69.632-96.256-178.176-188.416-54.272-50.176-126.976-105.472t-95.232-58.368q-13.312 2.048-28.672 12.288t-35.84 25.6-24.576 20.48q-270.336 203.776-356.352 365.568-50.176 98.304-43.008 210.944z" horiz-adv-x="978" />
<glyph unicode="&#xe819;" d="M0 579.015l388.096-2.048 128 368.64 119.808-372.736 388.096-8.192-316.416-225.28 112.64-374.784-314.368 230.4-317.44-220.16 121.856 368.64z" />
<glyph unicode="&#xe81a;" d="M0 205.255v137.216q0 26.624 18.432 32.768l175.104 81.92q-67.584 39.936-69.632 134.144 0 57.344 35.84 105.472 37.888 41.984 92.16 44.032 31.744 0 64.512-19.456-50.176-128 23.552-242.688-12.288-11.264-25.6-19.456l-116.736-56.32q-49.152-23.552-53.248-86.016v-146.432h-116.736q-25.6 0-27.648 34.816zM197.632 144.839v172.032q0 27.648 22.528 37.888l155.648 71.68 58.368 28.672q-37.888 23.552-61.44 67.584t-22.528 96.256q0 77.824 47.104 133.12t112.64 55.296 111.616-55.296 46.080-133.12q0-108.544-79.872-161.792l62.464-30.72 149.504-71.68q24.576-10.24 24.576-37.888v-172.032q-2.048-37.888-37.888-41.984h-553.984q-14.336 2.048-24.576 14.336t-10.24 27.648zM681.984 482.759q69.632 108.544 22.528 236.544 31.744 19.456 67.584 21.504 50.176 0 92.16-44.032 35.84-41.984 35.84-105.472 0-83.968-66.56-134.144l172.032-81.92q18.432-10.24 18.432-32.768v-137.216q0-32.768-27.648-34.816h-120.832v146.432q0 58.368-51.2 86.016l-112.64 54.272q-15.36 8.192-29.696 25.6z" />
<glyph unicode="&#xe81b;" d="M0 67.015v776.192h1024v-776.192h-1024zM125.952 192.967h772.096v524.288h-772.096v-524.288zM398.336 276.935v348.16l300.032-174.080z" />
<glyph unicode="&#xe81c;" d="M0 69.063v642.048h302.080l31.744 130.048h370.688l31.744-130.048h287.744v-642.048h-1024zM226.304 423.367q0-119.808 84.992-203.776t203.776-83.968 202.752 83.968 83.968 203.776-83.968 203.776-202.752 83.968-203.776-83.968-84.992-203.776zM312.32 423.367q0 83.968 58.368 143.36t143.36 60.416 144.384-60.416 59.392-143.36-59.392-143.36-144.384-58.368-143.36 58.368-58.368 143.36zM851.968 565.703h146.432v83.968h-146.432v-83.968z" />
<glyph unicode="&#xe81d;" d="M0 362.951l165.888 165.888 169.984-167.936 520.192 522.24 167.936-167.936-688.128-688.128-165.888 167.936z" />
<glyph unicode="&#xe81e;" d="M0 310.727v288.768h367.616v367.616h288.768v-367.616h367.616v-288.768h-367.616v-367.616h-288.768v367.616h-367.616z" />
<glyph unicode="&#xe81f;" d="M0 817.607q2.048 49.152 87.040 99.328t150.528 50.176q124.928 0 196.608-73.728 67.584-70.656 67.584-165.888 0-50.176-10.24-80.896t-45.056-84.992q-4.096-8.192-60.416-77.824t-78.848-121.856-13.312-106.496l-96.256 2.048q-29.696 67.584-26.624 134.144t28.672 121.856q14.336 31.744 40.96 75.776t40.96 75.776q20.48 46.080-13.312 91.136t-77.824 45.056q-39.936 0-61.44-15.36t-34.816-49.152h-77.824q-22.528 12.288-16.384 80.896zM125.952 58.823q0 48.128 33.792 81.92t81.92 34.816 81.92-34.816 34.816-81.92-34.816-81.92-81.92-33.792-81.92 33.792-33.792 81.92z" horiz-adv-x="502" />
<glyph unicode="&#xe820;" d="M0-56.889v664.576l463.872 359.424 463.872-359.424v-664.576h-319.488v400.384h-287.744v-400.384h-320.512z" horiz-adv-x="928" />
<glyph unicode="&#xe821;" d="M0 163.271q8.192 69.632 68.608 130.048l392.192 392.192q119.808 117.76 216.064 33.792 86.016-88.064-36.864-214.016l-361.472-359.424-67.584 71.68 357.376 357.376q2.048 0 8.192 6.144l8.192 8.192t7.168 9.216 6.144 10.24 6.144 9.216 4.096 11.264v10.24t-2.048 12.288q-19.456 17.408-75.776-37.888l-390.144-390.144q-37.888-35.84-41.984-70.656-4.096-39.936 35.84-79.872 41.984-33.792 71.68-28.672t72.704 47.104q83.968 81.92 223.232 220.16t198.656 199.68q2.048 2.048 18.432 17.408t17.408 17.408 15.36 16.384 15.36 17.408 12.288 17.408 13.312 19.456 11.264 20.48 10.24 25.6q16.384 58.368-33.792 125.952t-117.76 76.8q-69.632 7.168-155.648-74.752l-428.032-428.032-70.656 68.608 428.032 430.080q100.352 97.28 203.776 102.4t194.56-84.992q107.52-109.568 75.776-241.664-19.456-75.776-96.256-154.624-88.064-84.992-251.904-249.856l-214.016-214.016q-71.68-71.68-153.6-73.728-69.632 0-128 58.368-71.68 71.68-65.536 159.744z" horiz-adv-x="918" />
<glyph unicode="&#xe822;" d="M0-56.889v591.872h142.336q-2.048 169.984 25.6 236.544 39.936 90.112 118.784 142.336t173.056 53.248q96.256 0 176.128-55.296t117.76-140.288q26.624-60.416 26.624-124.928v-111.616h153.6v-591.872h-933.888zM329.728 534.983h262.144v114.688q-2.048 53.248-38.912 90.112t-93.184 38.912q-53.248 2.048-89.088-34.816t-40.96-96.256v-112.64z" horiz-adv-x="934" />
<glyph unicode="&#xe823;" d="M0-56.889v572.416h155.648v141.312q2.048 130.048 90.112 220.16 41.984 39.936 98.304 65.536t121.856 24.576q125.952-2.048 216.064-90.112 88.064-90.112 92.16-214.016h-182.272q-2.048 48.128-37.888 83.968-37.888 35.84-88.064 37.888-54.272-2.048-90.112-37.888-37.888-39.936-37.888-90.112v-141.312h566.272v-572.416h-904.192z" horiz-adv-x="904" />
<glyph unicode="&#xe824;" d="M0 455.111q6.144 50.176 65.536 112.64 80.896 81.92 180.224 132.096 132.096 61.44 266.24 61.44 140.288-2.048 266.24-61.44 105.472-54.272 180.224-132.096 65.536-74.752 65.536-112.64-6.144-50.176-65.536-111.616-80.896-81.92-180.224-132.096-132.096-62.464-266.24-62.464-140.288 2.048-266.24 62.464-105.472 54.272-180.224 132.096-65.536 73.728-65.536 111.616zM270.336 455.111q0-96.256 70.656-162.816t171.008-66.56 171.008 66.56 70.656 162.816-70.656 162.816-171.008 67.584-171.008-67.584-70.656-162.816zM358.4 456.135q0 61.44 45.056 104.448t108.544 43.008 108.544-43.008 45.056-104.448-45.056-104.448-108.544-44.032-108.544 44.032-45.056 104.448z" />
<glyph unicode="&#xe826;" d="M0 591.303v293.888q2.048 31.744 24.576 55.296t53.248 22.528h293.888q90.112-6.144 136.192-56.32l436.224-483.328q19.456-28.672 19.456-59.392t-19.456-53.248l-342.016-342.016q-25.6-21.504-58.368-21.504t-53.248 21.504l-434.176 486.4q-56.32 65.536-56.32 136.192zM128 759.239q2.048-31.744 23.552-53.248t52.224-20.48q32.768 0 53.248 22.528t21.504 51.2q0 33.792-23.552 55.296t-51.2 20.48q-33.792-2.048-54.272-23.552t-21.504-52.224z" horiz-adv-x="964" />
<glyph unicode="&#xe827;" d="M0 15.815v822.272q69.632 41.984 139.264 52.224t126.976-3.072 114.688-35.84 114.688-44.032 116.736-31.744 126.976 2.048 140.288 60.416v-470.016q-53.248-54.272-111.616-68.608t-112.64 1.024-119.808 40.96-126.976 52.224-138.24 35.84-154.624-11.264v-402.432h-115.712z" horiz-adv-x="880" />
<glyph unicode="&#xe828;" d="M0 32.199v565.248q0 16.384 10.24 25.6t25.6 11.264h150.528q33.792 0 35.84-36.864v-565.248q0-14.336-10.24-24.576t-25.6-12.288h-150.528q-13.312 0-23.552 10.24t-12.288 26.624zM283.648 59.847v512q0 22.528 14.336 35.84t37.888 16.384h115.712l116.736 258.048q13.312 31.744 41.984 31.744 37.888 2.048 95.232-62.464 18.432-25.6 25.6-56.32t6.144-49.152-9.216-65.536-10.24-56.32h253.952q26.624 0 38.912-17.408t11.264-45.056l-71.68-439.296q-12.288-43.008-54.272-75.776t-90.112-38.912h-470.016q-21.504 0-35.84 14.336t-16.384 37.888z" horiz-adv-x="1022" />
<glyph unicode="&#xe829;" d="M0 313.799v565.248q2.048 34.816 35.84 34.816h150.528q35.84-2.048 35.84-34.816v-565.248q-2.048-16.384-12.288-26.624t-23.552-10.24h-150.528q-13.312 2.048-24.576 12.288t-11.264 24.576zM283.648 337.351v514.048q2.048 21.504 16.384 35.84t33.792 14.336h470.016q35.84-2.048 71.68-22.528 56.32-33.792 72.704-90.112l71.68-439.296q2.048-26.624-13.312-44.032t-36.864-18.432h-253.952q8.192-59.392 22.528-119.808 6.144-92.16-96.256-161.792-20.48-14.336-44.032-6.144-20.48 6.144-31.744 29.696l-114.688 258.048h-117.76q-21.504 2.048-35.84 16.384t-14.336 33.792z" horiz-adv-x="1020" />
<glyph unicode="&#xe82a;" d="M0-56.889v138.24h1024v-138.24h-1024zM90.112 543.175h233.472v423.936h378.88v-423.936h233.472l-423.936-394.24z" />
<glyph unicode="&#xe82b;" d="M0 33.223v447.488q0 72.704 15.36 132.096t38.912 99.328 62.464 68.608 73.728 46.080 84.992 28.672 83.968 14.336 82.944 7.168l37.888-180.224q-50.176-9.216-82.944-20.48t-67.584-31.744-49.152-54.272-10.24-78.848h134.144v-478.208h-404.48zM541.696 33.223v447.488q0 72.704 16.384 132.096t38.912 99.328 62.464 68.608 73.728 46.080 84.992 28.672 82.944 14.336 82.944 7.168l39.936-180.224q-52.224-9.216-84.992-20.48t-66.56-31.744-48.128-54.272-12.288-78.848h134.144v-478.208h-404.48z" />
<glyph unicode="&#xe82c;" d="M0-49.721l69.632 351.232 280.576-279.552zM140.288 351.687l432.128 432.128 265.216-266.24-431.104-432.128zM684.032 857.543q2.048 39.936 31.744 70.656t70.656 31.744 67.584-26.624l134.144-133.12q25.6-26.624 24.576-67.584t-30.72-70.656-70.656-30.72-67.584 24.576l-134.144 134.144q-27.648 27.648-25.6 67.584z" horiz-adv-x="1013" />
<glyph unicode="&#xe82e;" d="M0 276.935v312.32h1024v-312.32h-157.696l55.296-271.36h-819.2l55.296 271.36h-157.696zM33.792 647.623l240.64 101.376h39.936v156.672h395.264v-156.672h39.936l240.64-101.376h-956.416zM167.936 81.351h688.128l-79.872 390.144h-528.384z" />
<glyph unicode="&#xe82f;" d="M0 195.015v730.112h1024v-730.112h-484.352l-327.68-209.92v209.92h-211.968z" />
<glyph unicode="&#xe830;" d="M0 106.951v46.080l201.728 174.080v272.384q0 109.568 69.632 194.56t175.104 107.52v63.488h133.12v-63.488q104.448-22.528 174.080-107.52t70.656-194.56v-272.384l199.68-174.080v-46.080h-1024zM438.272 17.863q0 30.72 21.504 53.248t53.248 21.504 53.248-21.504 21.504-53.248-21.504-52.224-53.248-20.48-53.248 20.48-21.504 52.224z" />
<glyph unicode="&#xe831;" d="M0 581.063q0 159.744 112.64 273.408t273.408 112.64 273.408-112.64 112.64-273.408q0-125.952-54.272-197.632l-331.776-440.32-331.776 440.32q-54.272 71.68-54.272 197.632zM224.256 581.063q0-67.584 47.104-114.688t114.688-47.104 114.688 47.104 47.104 114.688-47.104 114.688-114.688 47.104-114.688-47.104-47.104-114.688z" horiz-adv-x="772" />
<glyph unicode="&#xe833;" d="M0-56.889v837.632l192.512 186.368h531.456v-356.352h-88.064v266.24h-377.856v-159.744h-169.984v-684.032h428.032v-90.112h-516.096zM381.952 155.079v165.888h214.016v211.968h163.84v-211.968h211.968v-165.888h-211.968v-211.968h-163.84v211.968h-214.016z" horiz-adv-x="972" />
<glyph unicode="&#xe836;" d="M0 375.239v159.744l153.6 16.384q14.336 46.080 38.912 90.112l-98.304 119.808 111.616 111.616 119.808-97.28q41.984 23.552 90.112 37.888l16.384 153.6h159.744l16.384-153.6q46.080-14.336 90.112-37.888l119.808 97.28 111.616-111.616-98.304-119.808q24.576-44.032 38.912-90.112l153.6-16.384v-159.744l-153.6-16.384q-14.336-48.128-38.912-90.112l98.304-119.808-111.616-111.616-119.808 98.304q-44.032-24.576-90.112-38.912l-16.384-153.6h-159.744l-16.384 153.6q-48.128 14.336-90.112 38.912l-119.808-98.304-111.616 111.616 98.304 119.808q-24.576 41.984-38.912 90.112zM363.52 455.111q0-61.44 43.008-104.448t105.472-43.008 105.472 43.008 43.008 104.448-43.008 105.472-105.472 43.008-105.472-43.008-43.008-105.472z" />
<glyph unicode="&#xe838;" d="M0 118.215l474.112 474.112q-25.6 69.632-10.24 148.48t73.728 137.216 136.192 73.728 150.528-10.24l-165.888-165.888 46.080-119.808 117.76-46.080 167.936 167.936q25.6-71.68 9.216-150.528t-74.752-136.192-135.168-73.728-151.552 8.192l-474.112-473.088zM115.712 116.167q0-20.48 14.336-34.816t33.792-13.312 33.792 13.312 14.336 34.816-14.336 33.792-33.792 14.336-33.792-14.336-14.336-33.792z" horiz-adv-x="1006" />
<glyph unicode="&#xe839;" d="M2.048 906.695q8.192 20.48 27.648 29.696t38.912 4.096l153.6-49.152q32.768-10.24 35.84-44.032l10.24-86.016 702.464-78.848q23.552-5.12 35.84-22.528t10.24-38.912l-44.032-243.712q-8.192-44.032-50.176-44.032h-622.592l-11.264-70.656h591.872q21.504 0 36.864-14.336t15.36-36.864q-2.048-22.528-17.408-37.888t-34.816-14.336h-656.384q-25.6 2.048-39.936 19.456t-12.288 41.984l28.672 152.576-41.984 428.032-121.856 39.936q-46.080 17.408-34.816 65.536zM224.256 47.559q0 32.768 24.576 57.344t56.32 23.552 57.344-23.552 23.552-57.344-23.552-56.32-57.344-24.576-56.32 24.576-24.576 56.32zM704.512 47.559q0 32.768 23.552 57.344t57.344 23.552 57.344-23.552 23.552-57.344-23.552-56.32-57.344-24.576-57.344 24.576-23.552 56.32z" horiz-adv-x="1017" />
<glyph unicode="&#xe83a;" d="M0 230.855v288.768h65.536v-253.952q122.88-98.304 276.48-98.304t276.48 98.304v253.952h65.536v-288.768q-31.744-27.648-65.536-51.2-83.968-54.272-182.272-72.704v32.768h-188.416v-32.768q-97.28 18.432-182.272 72.704-33.792 23.552-65.536 51.2zM111.616 323.015v562.176q30.72 25.6 70.656 46.080v-115.712h55.296v137.216q38.912 12.288 76.8 14.336v-151.552h55.296v151.552q37.888-4.096 78.848-14.336v-137.216h55.296v113.664q37.888-18.432 68.608-44.032v-562.176q-100.352-81.92-230.4-81.92t-230.4 81.92zM138.24 12.743h109.568v94.208q46.080-8.192 94.208-8.192t94.208 8.192v-94.208h109.568v-69.632h-407.552v69.632z" horiz-adv-x="684" />
<glyph unicode="&#xe83f;" d="M0 167.367v256q0 211.968 150.528 361.472t361.472 150.528 362.496-150.528 149.504-361.472v-256q-4.096-41.984-35.84-55.296t-62.464 5.12-29.696 50.176v256q0 159.744-111.616 271.36t-272.384 112.64-272.384-112.64-111.616-271.36v-256q-4.096-41.984-35.84-55.296t-62.464 5.12-29.696 50.176zM192.512 6.599v320.512q0 14.336 8.192 22.528t23.552 9.216h63.488q14.336 0 23.552-9.216t9.216-22.528v-320.512q0-13.312-9.216-22.528t-23.552-9.216h-63.488q-14.336 0-23.552 9.216t-8.192 22.528zM704.512 6.599v320.512q0 14.336 8.192 22.528t23.552 9.216h63.488q14.336 0 23.552-9.216t9.216-22.528v-320.512q0-13.312-9.216-22.528t-23.552-9.216h-63.488q-14.336 0-23.552 9.216t-8.192 22.528z" />
<glyph unicode="&#xe840;" d="M0 454.087q0 192.512 137.216 329.728t329.728 137.216 328.704-137.216 136.192-329.728-136.192-328.704-328.704-136.192-329.728 136.192-137.216 328.704zM121.856 454.087q0-143.36 101.376-243.712t243.712-101.376 243.712 101.376 101.376 243.712-101.376 243.712-243.712 101.376-243.712-101.376-101.376-243.712zM297.984 383.431v119.808h119.808v218.112h119.808v-337.92h-239.616z" horiz-adv-x="932" />
<glyph unicode="&#xe841;" d="M1.024 413.127q-2.048 12.288 7.168 22.528t22.528 11.264l92.16 16.384q14.336 2.048 26.624-5.12t13.312-20.48-7.168-23.552-24.576-13.312l-90.112-13.312q-14.336-2.048-25.6 5.12t-14.336 20.48zM3.072 670.151q-6.144 13.312 0 24.576t19.456 16.384 26.624-4.096l83.968-35.84q14.336-6.144 19.456-18.432t0-23.552-18.432-16.384-26.624 0l-83.968 39.936q-14.336 4.096-20.48 17.408zM166.912 882.119q2.048 13.312 14.336 21.504 10.24 5.12 22.528 2.048t21.504-16.384l50.176-77.824q7.168-12.288 5.12-26.624t-11.264-19.456-23.552-3.072-20.48 15.36l-52.224 77.824q-8.192 13.312-6.144 26.624zM225.28 635.335q17.408 39.936 50.176 67.584t76.8 41.984 96.256 14.336h4.096q52.224 0 96.256-14.336t76.8-41.984 51.2-67.584q44.032-106.496-15.36-232.448-22.528-44.032-48.128-94.208-14.336-25.6-25.6-74.752t-16.384-62.464q-4.096-12.288-16.384-14.336h-207.872q-12.288 2.048-18.432 14.336-29.696 113.664-39.936 137.216-25.6 50.176-48.128 94.208-59.392 134.144-15.36 232.448zM326.656-2.617q0 8.192 5.12 12.288t13.312 5.12h214.016q6.144 0 11.264-5.12t5.12-12.288v-35.84q0-8.192-5.12-13.312t-11.264-5.12h-214.016q-18.432 0-18.432 18.432v35.84zM326.656 67.015v35.84q0 18.432 18.432 18.432h214.016q6.144 0 11.264-5.12t5.12-13.312v-35.84q0-8.192-5.12-13.312t-11.264-4.096h-214.016q-8.192 0-13.312 4.096t-5.12 13.312zM422.912 839.111v92.16q0 16.384 8.192 25.6t21.504 10.24q12.288 0 21.504-10.24t9.216-25.6v-92.16q0-14.336-9.216-23.552t-21.504-10.24q-13.312 0-21.504 10.24t-8.192 23.552zM620.544 784.839q-1.024 14.336 6.144 26.624l50.176 77.824q10.24 12.288 22.528 16.384t23.552-2.048q10.24-8.192 12.288-21.504t-6.144-26.624l-50.176-77.824q-10.24-12.288-21.504-15.36t-23.552 3.072-13.312 19.456zM741.376 437.703q2.048 13.312 12.288 20.48t25.6 5.12l92.16-16.384q13.312-2.048 22.528-12.288t7.168-21.504q-2.048-14.336-13.312-21.504t-26.624-4.096l-92.16 13.312q-14.336 2.048-22.528 13.312t-5.12 23.552zM749.568 629.191q-4.096 12.288 1.024 23.552t18.432 18.432l86.016 35.84q12.288 8.192 24.576 4.096t19.456-16.384 0-24.576-20.48-17.408l-83.968-39.936q-13.312-4.096-26.624 0t-18.432 16.384z" horiz-adv-x="902" />
<glyph unicode="&#xe850;" d="M0-56.889v411.648h411.648l-163.84-163.84q110.592-109.568 264.192-109.568 128 0 227.328 76.8t133.12 196.608h141.312q-35.84-177.152-177.152-294.912t-324.608-116.736q-211.968 0-361.472 149.504zM10.24 555.463q35.84 178.176 177.152 294.912t324.608 116.736q211.968 0 362.496-149.504l149.504 149.504v-411.648h-411.648l163.84 163.84q-110.592 109.568-264.192 109.568-128 0-227.328-76.8t-133.12-196.608h-141.312z" />
<glyph unicode="&#xe856;" d="M0-56.889v256h203.776v-256h-203.776zM274.432-56.889v512h203.776v-512h-203.776zM545.792-56.889v768h203.776v-768h-203.776zM820.224-56.889v1024h203.776v-1024h-203.776z" />
<glyph unicode="&#xe857;" d="M0 203.207v675.84h1024v-675.84h-371.712v-98.304h90.112v-73.728h-460.8v73.728h90.112v98.304h-371.712zM125.952 331.207h772.096v419.84h-772.096v-419.84z" />
<glyph unicode="&#xe858;" d="M0 144.839v90.112h1024v-90.112l-52.224-53.248h-919.552zM102.4 283.079v536.576h819.2v-536.576h-819.2zM203.776 381.383h616.448v342.016h-616.448v-342.016zM417.792 123.335h188.416v81.92h-188.416v-81.92z" />
<glyph unicode="&#xe85b;" d="M0 455.111q0 211.968 150.528 362.496t361.472 149.504 362.496-149.504 149.504-362.496-149.504-362.496-362.496-149.504-361.472 149.504-150.528 362.496zM128 513.479q22.528-28.672 48.128-44.032t66.56-30.72 59.392-21.504q4.096-6.144 15.36-15.36t14.336-10.24q0-6.144-2.048-16.384-2.048-22.528 1.024-39.936t8.192-27.648 16.384-29.696 16.384-28.672q2.048-6.144 0-14.336-2.048-15.36-8.192-65.536t-7.168-77.824q39.936-24.576 77.824-26.624 4.096 8.192 8.192 18.432 4.096 8.192 8.192 20.48t13.312 29.696q0 13.312 5.12 25.6t11.264 18.432q6.144 7.168 13.312 13.312 20.48 16.384 36.864 32.768t17.408 25.6q8.192 31.744 10.24 69.632 0 12.288-9.216 20.48t-20.48 15.36q-18.432 8.192-47.104 35.84t-43.008 32.768q-18.432 8.192-34.816 9.216t-31.744-1.024q-13.312-4.096-33.792-2.048-4.096 6.144-8.192 8.192-8.192 3.072-2.048 9.216 4.096 8.192-3.072 11.264t-14.336 1.024q-8.192 23.552-8.192 37.888 14.336-12.288 23.552-17.408t18.432-8.192 14.336-2.048q9.216 4.096 11.264 19.456t-2.048 44.032q4.096 4.096 4.096 8.192 4.096 18.432 11.264 23.552t7.168 6.144q4.096 0 4.096 2.048 4.096 2.048 15.36 4.096 6.144 2.048 10.24 3.072t10.24 3.072q8.192 4.096 4.096 12.288h-2.048q17.408 10.24 35.84 41.984-12.288 19.456-35.84 31.744-8.192 10.24-20.48 6.144-5.12 0-14.336 6.144t-13.312 8.192-12.288 3.072q-13.312 8.192-26.624 21.504t-21.504 26.624q-3.072 10.24-17.408 14.336-10.24 2.048-20.48 2.048h-11.264q-56.32-44.032-95.232-106.496t-51.2-137.216zM390.144 817.607q25.6-14.336 61.44-26.624t70.656-12.288q23.552 0 52.224 16.384 27.648 20.48 77.824 10.24 8.192-2.048 13.312-2.048-35.84 16.384-75.776 23.552t-81.92 8.192q-61.44 0-117.76-17.408zM558.080 425.415q4.096-26.624 19.456-39.936 12.288-12.288 26.624-14.336t25.6 0 28.672-2.048q7.168-4.096 9.216-4.096-6.144-13.312-4.096-21.504 0-4.096 6.144-19.456t6.144-24.576q-4.096-50.176 0-62.464 6.144-12.288 14.336-33.792t14.336-33.792q3.072-8.192 13.312-10.24 20.48-4.096 48.128 23.552 20.48 24.576 23.552 52.224 2.048 10.24 8.192 22.528t10.24 25.6q2.048 6.144 0 14.336 14.336 21.504 14.336 39.936v14.336q2.048 3.072 9.216 10.24t12.288 11.264q6.144 23.552 2.048 31.744 0 2.048-4.096 4.096l-17.408 6.144q11.264 25.6 35.84 20.48l31.744 9.216v6.144q0 92.16-36.864 166.912t-101.376 129.024q-103.424-11.264-130.048-46.080-11.264-19.456-15.36-33.792-2.048-8.192-5.12-20.48t-4.096-17.408-5.12-12.288-12.288-17.408q-4.096-4.096-4.096-11.264t6.144-19.456q6.144-9.216 6.144-17.408 29.696 0 37.888 10.24l72.704-6.144q25.6 31.744 57.344 0 8.192-8.192 18.432-26.624l-29.696-19.456q-20.48 10.24-34.816 15.36t-28.672 8.192-22.528 1.024-31.744-4.096-36.864-3.072l-4.096-7.168t-6.144-7.168-7.168-3.072q-2.048-4.096-2.048-10.24v-8.192q-22.528-27.648-14.336-65.536z" />
<glyph unicode="&#xe85c;" d="M0 343.495q4.096 70.656 33.792 128t89.088 87.040 126.976 14.336q54.272 87.040 131.072 116.736t148.48 6.144 129.024-82.944 79.872-140.288q50.176 6.144 91.136-22.528t57.344-69.632 9.216-92.16-48.128-83.968h-809.984q-41.984 68.608-37.888 139.264z" horiz-adv-x="898" />
<glyph unicode="&#xe85d;" d="M0 281.031l81.92 174.080-81.92 174.080h102.4l115.712-102.4h184.32l-128 410.624h101.376l230.4-410.624h264.192l37.888-2.048q39.936-2.048 77.824-19.456t37.888-50.176q0-20.48-17.408-34.816t-36.864-22.528-46.080-10.24-36.864-3.072-16.384-1.024h-264.192l-230.4-410.624h-101.376l128 410.624h-184.32l-115.712-102.4h-102.4z" />
<glyph unicode="&#xe868;" d="M2.048 154.055q9.216 28.672 31.744 49.152t45.056 41.984 20.48 32.768q-14.336 30.72-14.336 39.936-19.456 130.048 62.464 237.568t199.68 156.672q44.032 18.432 104.448 20.48t106.496-4.096 96.256 4.096 80.896 44.032q46.080 50.176 83.968 50.176 23.552 0 33.792-20.48 56.32-121.856 30.72-245.76t-98.304-226.304-172.032-153.6q-186.368-92.16-360.448-32.768-13.312 4.096-44.032 23.552t-48.128 18.432q-9.216-5.12-19.456-18.432t-22.528-32.768-15.36-26.624q-14.336-23.552-37.888-27.648t-44.032 16.384q-28.672 25.6-19.456 53.248zM188.416 333.255q1.024-15.36 13.312-24.576t26.624-8.192 24.576 12.288q148.48 177.152 386.048 172.032 16.384-2.048 27.648 8.192t10.24 25.6q0 15.36-9.216 26.624t-26.624 13.312q-130.048 6.144-244.736-46.080t-198.656-150.528q-10.24-13.312-9.216-28.672z" horiz-adv-x="892" />
<glyph unicode="&#xe869;" d="M0 5.575v260.096h461.824v-81.92h100.352v81.92h461.824v-260.096h-1024zM0 345.543v415.744h272.384v144.384h479.232v-144.384h272.384v-415.744h-461.824v86.016h-100.352v-86.016h-461.824zM346.112 761.287h331.776v69.632h-331.776v-69.632z" />
<glyph unicode="&#xe86a;" d="M0 455.111q0 211.968 150.528 362.496l103.424-104.448q-107.52-105.472-107.52-258.048t106.496-259.072 259.072-106.496 259.072 106.496 106.496 259.072-107.52 258.048l104.448 104.448q149.504-150.528 149.504-362.496t-149.504-362.496-362.496-149.504-361.472 149.504-150.528 362.496zM438.272 375.239v591.872h147.456v-591.872h-147.456z" />
<glyph unicode="&#xe86b;" d="M0-56.889l205.824 1024h256l-8.192-235.52h116.736l-8.192 235.52h256l205.824-1024h-428.032l-10.24 293.888h-147.456l-10.24-293.888h-428.032zM440.32 325.063h143.36l-11.264 348.16h-120.832z" />
<glyph unicode="&#xe86c;" d="M0-56.889v465.92h465.92v-465.92h-465.92zM0 501.191v465.92h465.92v-465.92h-465.92zM92.16 35.271h279.552v279.552h-279.552v-279.552zM92.16 595.399h279.552v279.552h-279.552v-279.552zM186.368 129.479v94.208h93.184v-94.208h-93.184zM186.368 687.559v91.136h93.184v-91.136h-93.184zM558.080-56.889v465.92h277.504v-94.208h96.256v94.208h92.16v-279.552h-279.552v92.16h-92.16v-278.528h-94.208zM558.080 501.191v465.92h465.92v-465.92h-465.92zM652.288 595.399h279.552v279.552h-279.552v-279.552zM744.448 35.271h91.136v-92.16h-91.136v92.16zM744.448 687.559v91.136h91.136v-91.136h-91.136zM931.84 35.271h92.16v-92.16h-92.16v92.16z" />
<glyph unicode="&#xe86d;" d="M0 12.743v884.736h86.016v-884.736h-86.016zM125.952 12.743v884.736h20.48v-884.736h-20.48zM197.632 12.743v884.736h64.512v-884.736h-64.512zM291.84 12.743v884.736h28.672v-884.736h-28.672zM398.336 12.743v884.736h41.984v-884.736h-41.984zM455.68 12.743v884.736h18.432v-884.736h-18.432zM518.144 12.743v884.736h19.456v-884.736h-19.456zM564.224 12.743v884.736h83.968v-884.736h-83.968zM677.888 12.743v884.736h44.032v-884.736h-44.032zM782.336 12.743v884.736h9.216v-884.736h-9.216zM807.936 12.743v884.736h27.648v-884.736h-27.648zM877.568 12.743v884.736h20.48v-884.736h-20.48zM940.032 12.743v884.736h83.968v-884.736h-83.968z" />
<glyph unicode="&#xe86f;" d="M0 247.239v556.032q0 31.744 14.336 54.272 29.696 46.080 104.448 78.848t118.784 9.216l482.304-247.808v-604.16l-88.064-48.128v604.16l-430.080 229.376q-29.696 10.24-66.56-9.216t-59.392-48.128l480.256-276.48v-541.696l-88.064-48.128z" horiz-adv-x="720" />
<glyph unicode="&#xe870;" d="M0 67.015v776.192h1024v-776.192h-1024zM125.952 192.967h772.096v524.288h-772.096v-524.288zM153.6 358.855l128 106.496 36.864 29.696 31.744-33.792 44.032-48.128 107.52 169.984 48.128 73.728 39.936-79.872 62.464-128 130.048 228.352 88.064-50.176-180.224-312.32-46.080-81.92-41.984 86.016-64.512 134.144-128-199.68-44.032 46.080-55.296 57.344-92.16-75.776z" />
<glyph unicode="&#xe872;" d="M7.168 340.423q10.24 41.984 51.2 134.144t45.056 149.504q39.936-73.728 46.080-148.48 151.552 188.416 157.696 438.272 10.24-6.144 25.6-17.408t59.392-46.080 75.776-75.776 62.464-98.304 34.816-120.832q15.36 36.864 19.456 79.872t-9.216 82.944q15.36-12.288 41.984-40.96t57.344-75.776 57.344-101.376 31.744-120.832-9.216-130.048-73.728-130.048-155.648-122.88q65.536 131.072 25.6 284.672t-157.696 234.496q10.24-44.032-11.264-144.384t-66.56-153.6q7.168 64.512 4.096 104.448t-12.288 59.392l-10.24 18.432q-12.288-71.68-61.44-144.384-26.624-37.888-39.936-69.632t-9.216-81.92 30.72-107.52q-138.24 77.824-185.344 157.696t-24.576 185.344z" horiz-adv-x="766" />
<glyph unicode="&#xe873;" d="M0 393.671v256h365.568l-161.792 129.024 194.56 128 71.68-217.088 123.904 277.504 194.56-191.488-198.656-125.952h333.824v-256h-63.488v-450.56h-795.648v450.56h-64.512zM64.512 457.159h333.824v128h-333.824v-128zM128 7.623h270.336v405.504h-270.336v-405.504zM285.696 775.623l142.336-114.688-56.32 169.984zM505.856 650.695l205.824 130.048-101.376 102.4zM526.336 7.623h269.312v405.504h-269.312v-405.504zM526.336 457.159h333.824v128h-333.824v-128z" horiz-adv-x="924" />
<glyph unicode="&#xe877;" d="M0 305.607q2.048 108.544 58.368 194.56 17.408 27.648 56.32 81.92t55.296 79.872q92.16 142.336 130.048 262.144 16.384 46.080 60.416 41.984 47.104 2.048 59.392-41.984 37.888-122.88 132.096-262.144 18.432-29.696 56.32-81.92t55.296-79.872q56.32-90.112 58.368-194.56-4.096-151.552-105.472-256-108.544-103.424-256-105.472-152.576 4.096-253.952 105.472-106.496 110.592-106.496 256zM157.696 225.735q2.048-37.888 28.672-63.488t61.44-26.624q37.888 2.048 64.512 28.672t25.6 61.44q0 27.648-14.336 48.128-17.408 23.552-27.648 41.984-25.6 41.984-33.792 64.512-2.048 13.312-14.336 11.264-11.264 2.048-15.36-11.264-8.192-28.672-30.72-64.512-6.144-10.24-15.36-22.528t-14.336-19.456q-14.336-20.48-14.336-48.128z" horiz-adv-x="722" />
<glyph unicode="&#xe879;" d="M0 448.967v125.952q2.048 35.84 26.624 61.44t59.392 24.576h276.48q141.312 8.192 278.528 66.56t234.496 155.648q36.864-2.048 60.416-26.624t23.552-59.392v-203.776q28.672-8.192 46.080-30.72t18.432-51.2q-2.048-30.72-19.456-52.224t-45.056-27.648v-205.824q-1.024-36.864-26.624-60.416t-57.344-24.576q-211.968 188.416-459.776 216.064-67.584-33.792-54.272-130.048t78.848-145.408q-28.672-48.128-98.304-53.248t-107.52 30.72q-16.384 46.080-25.6 77.824t-16.384 72.704-7.168 79.872 10.24 73.728h-109.568q-35.84 2.048-61.44 27.648t-24.576 58.368zM448.512 438.727q245.76-45.056 429.056-187.392v520.192q-207.872-154.624-429.056-186.368v-146.432z" />
<glyph unicode="&#xe87a;" d="M0-56.889v925.696h230.4v-65.536h-164.864v-792.576h592.896v792.576h-164.864v65.536h230.4v-925.696h-723.968zM132.096 75.207v31.744h31.744v-31.744h-31.744zM132.096 199.111v31.744h31.744v-31.744h-31.744zM132.096 323.015v31.744h31.744v-31.744h-31.744zM132.096 446.919v32.768h31.744v-32.768h-31.744zM132.096 570.823v32.768h31.744v-32.768h-31.744zM132.096 669.127v96.256h132.096v99.328q0 41.984 27.648 72.704t70.656 29.696 70.656-30.72 28.672-71.68q0-57.344-2.048-99.328h132.096v-96.256h-459.776zM230.4 73.159v33.792h361.472v-33.792h-361.472zM230.4 197.063v33.792h361.472v-33.792h-361.472zM230.4 320.967v33.792h361.472v-33.792h-361.472zM230.4 444.871v34.816h361.472v-34.816h-361.472zM230.4 568.775v34.816h361.472v-34.816h-361.472zM329.728 835.015q0-14.336 9.216-22.528t23.552-9.216 22.528 9.216 9.216 22.528-9.216 24.576-22.528 9.216-23.552-9.216-9.216-24.576z" horiz-adv-x="724" />
<glyph unicode="&#xe87c;" d="M0 455.111q0 115.712 81.92 197.632t197.632 82.944q98.304 0 173.056-59.392t99.328-151.552h472.064v-119.808h-65.536v-223.232h-118.784v223.232h-55.296v-153.6h-120.832v153.6h-107.52q-18.432-97.28-96.256-163.84t-180.224-65.536q-115.712 0-197.632 81.92t-81.92 197.632zM130.048 455.111q0-61.44 44.032-105.472t105.472-44.032 106.496 44.032 44.032 105.472-44.032 106.496-106.496 44.032-105.472-44.032-44.032-106.496z" />
<glyph unicode="&#xe883;" d="M0 491.975q-2.048 13.312 8.192 25.6l368.64 190.464q29.696 11.264 41.984-16.384 11.264-33.792-14.336-46.080l-232.448-106.496h673.792l-233.472 106.496q-25.6 16.384-14.336 46.080 14.336 27.648 44.032 16.384l370.688-190.464q11.264-12.288 9.216-25.6l-27.648-262.144q-8.192-30.72-33.792-30.72h-320.512q-25.6 2.048-31.744 26.624l-50.176 228.352q-39.936 25.6-94.208 1.024l-51.2-229.376q-6.144-26.624-32.768-26.624h-319.488q-27.648 2.048-31.744 30.72zM68.608 461.255l19.456-193.536h266.24l44.032 193.536h-329.728zM624.64 461.255l41.984-193.536h265.216l20.48 193.536h-327.68z" horiz-adv-x="1023" />
<glyph unicode="&#xe884;" d="M0 33.223q0 22.528 16.384 38.912l253.952 256q17.408 16.384 40.96 16.384t38.912-16.384q15.36-18.432 15.36-41.984t-15.36-39.936l-253.952-256q-41.984-35.84-79.872 0-16.384 19.456-16.384 43.008zM128 521.671q4.096 134.144 92.16 224.256 96.256 92.16 224.256 94.208 132.096-4.096 221.184-94.208 92.16-96.256 92.16-224.256 0-51.2-11.264-84.992t-36.864-76.8q-9.216-23.552-41.984-61.44t-41.984-54.272q-6.144-18.432-6.144-39.936t0-49.152 2.048-43.008q-2.048-92.16-55.296-136.192-54.272-29.696-116.736-29.696-21.504 2.048-35.84 16.384t-14.336 33.792 12.288 35.84q10.24 10.24 21.504 14.336t26.624 4.096 24.576 3.072q25.6 8.192 27.648 16.384 6.144 20.48 6.144 60.416 2.048 9.216 0 60.416t4.096 59.392q10.24 41.984 29.696 69.632 6.144 6.144 16.384 18.432t15.36 17.408l32.768 48.128q5.12 8.192 14.336 25.6t13.312 22.528q12.288 31.744 12.288 69.632-2.048 92.16-62.464 152.576-65.536 61.44-149.504 61.44-90.112-2.048-150.528-61.44-61.44-66.56-63.488-152.576 0-21.504-14.336-36.864t-35.84-14.336q-22.528 2.048-36.864 16.384t-15.36 34.816zM285.696 514.503q2.048 67.584 46.080 111.616 48.128 46.080 112.64 48.128 65.536-4.096 109.568-48.128 46.080-48.128 48.128-111.616-2.048-20.48-14.336-32.768t-29.696-11.264q-41.984 3.072-41.984 44.032-2.048 29.696-23.552 50.176t-48.128 21.504q-30.72-2.048-51.2-23.552t-21.504-48.128q-2.048-20.48-13.312-32.768t-30.72-11.264q-41.984 3.072-41.984 44.032zM730.112 769.479q0 22.528 17.408 38.912l138.24 139.264q20.48 16.384 41.984 16.384t37.888-16.384q18.432-17.408 17.408-40.96t-17.408-38.912l-137.216-139.264q-41.984-38.912-80.896 0-17.408 17.408-17.408 40.96z" horiz-adv-x="983" />
<glyph unicode="&#xe885;" d="M0-38.457v295.936q0 105.472 61.44 181.248t160.768 76.8h337.92q103.424-2.048 161.792-77.824t58.368-180.224v-295.936q0-18.432-18.432-18.432h-107.52q-16.384 0-16.384 18.432v258.048q-6.144 27.648-27.648 24.576t-22.528-24.576v-258.048q-2.048-18.432-19.456-18.432h-360.448q-17.408 0-17.408 18.432v258.048q-4.096 27.648-26.624 24.576t-23.552-24.576v-258.048q0-18.432-18.432-18.432h-103.424q-18.432 0-18.432 18.432zM190.464 763.335q0 83.968 60.416 143.36t143.36 60.416q88.064-4.096 145.408-61.44t60.416-142.336q-2.048-86.016-62.464-146.432t-143.36-59.392q-86.016 2.048-145.408 61.44t-58.368 144.384z" horiz-adv-x="780" />
<glyph unicode="&#xe886;" d="M5.12 646.599q-14.336 29.696 12.288 43.008 13.312 6.144 26.624 2.048t18.432-13.312q20.48-31.744 59.392-52.224t70.656-20.48h322.56q-31.744-159.744-27.648-303.104-18.432 0-51.2 5.12t-49.152 6.144q-27.648 4.096-20.48-23.552l46.080-182.272q-2.048-50.176-39.936-56.32-15.36 0-31.744 11.264t-20.48 23.552l-57.344 227.328q-2.048 12.288-13.312 12.288t-15.36-12.288l-53.248-225.28q-10.24-36.864-44.032-36.864-22.528 0-35.84 18.432t-10.24 37.888l65.536 268.288 4.096 163.84q-46.080 12.288-91.136 39.936t-64.512 66.56zM408.576 814.535q-11.264 21.504 8.192 33.792 22.528 12.288 33.792-6.144l114.688-180.224q11.264-23.552-6.144-35.84-24.576-10.24-35.84 8.192zM500.736 107.975l39.936 163.84q2.048 8.192-2.048 16.384 2.048 189.44 26.624 300.032 79.872-104.448 216.064-132.096-4.096-12.288-13.312-34.816t-13.312-32.768q-4.096-14.336 4.096-41.984 29.696-116.736 62.464-236.544 4.096-29.696-16.384-41.984t-44.032-6.144-29.696 24.576l-46.080 176.128q-10.24 17.408-27.648 18.432t-24.576-18.432l-41.984-174.080q-10.24-26.624-33.792-28.672t-41.984 14.336-14.336 33.792zM599.040 628.167l138.24 142.336 23.552 88.064 54.272-64.512q6.144-2.048 26.624-6.144t31.744-8.192 24.576-12.288 18.432-21.504 12.288-46.080 14.336-41.984q12.288-11.264 25.6-21.504t33.792-33.792q18.432-36.864-49.152-72.704-28.672 2.048-53.248 6.144t-43.008 6.144q-24.576 4.096-41.984 8.192-4.096-10.24-7.168-22.528t-9.216-23.552q-59.392 12.288-115.712 45.056t-83.968 78.848z" horiz-adv-x="1007" />
<glyph unicode="&#xe887;" d="M0 289.223q2.048 111.616 64.512 197.632 65.536 88.064 165.888 128 44.032 10.24 57.344-25.6 6.144-18.432-1.024-33.792t-24.576-20.48q-79.872-33.792-125.952-97.28-46.080-70.656-48.128-148.48 4.096-109.568 79.872-184.32 83.968-75.776 190.464-75.776 88.064 2.048 155.648 48.128 71.68 50.176 100.352 123.904 5.12 16.384 9.216 31.744 12.288 41.984 52.224 32.768 41.984-12.288 33.792-50.176-5.12-24.576-13.312-41.984-39.936-106.496-130.048-167.936-98.304-62.464-207.872-62.464-148.48 4.096-251.904 102.4-104.448 103.424-106.496 243.712zM270.336 864.711q2.048 44.032 30.72 73.728t70.656 28.672q44.032-2.048 73.728-30.72t28.672-71.68q-2.048-44.032-31.744-72.704t-70.656-28.672q-44.032 2.048-72.704 30.72t-28.672 70.656zM318.464 650.695h2.048q-8.192 36.864 21.504 66.56 23.552 21.504 60.416 21.504 27.648 0 47.104-15.36 10.24-8.192 17.408-16.384t11.264-19.456 5.12-18.432 4.096-23.552 4.096-22.528h169.984q32.768-2.048 43.008-31.744 3.072-24.576-10.24-39.936t-37.888-14.336h-146.432l22.528-107.52h185.344q48.128-2.048 66.56-39.936l165.888-290.816q15.36-33.792-10.24-59.392-22.528-20.48-49.152-15.36t-38.912 30.72l-144.384 250.88q-49.152 1.024-147.456 0t-111.616 0q-60.416 3.072-70.656 55.296z" horiz-adv-x="956" />
<glyph unicode="&#xe888;" d="M0 310.727q0 152.576 107.52 260.096t260.096 108.544q108.544 0 200.704-58.368l203.776 203.776h-155.648v142.336h399.36v-400.384h-143.36v154.624l-200.704-202.752q64.512-93.184 64.512-207.872 0-151.552-108.544-260.096t-261.12-107.52-259.072 107.52-107.52 260.096zM148.48 311.751q0-90.112 63.488-155.648t154.624-64.512 156.672 64.512 64.512 155.648-64.512 155.648-156.672 63.488-154.624-63.488-63.488-155.648z" horiz-adv-x="1016" />
<glyph unicode="&#xe889;" d="M0 637.383q0 136.192 96.256 232.448t231.424 97.28 233.472-97.28 97.28-232.448q0-118.784-76.8-208.896t-189.44-113.664v-105.472h140.288v-125.952h-140.288v-140.288h-125.952v140.288h-142.336v125.952h142.336v105.472q-114.688 22.528-190.464 113.664t-75.776 208.896zM130.048 637.383q0-81.92 58.368-140.288t139.264-58.368 140.288 58.368 58.368 140.288-58.368 140.288-140.288 57.344-139.264-57.344-58.368-140.288z" horiz-adv-x="658" />
<glyph unicode="&#xe88b;" d="M0-56.889v1024h1024v-1024h-1024zM192.512 329.159q0-199.68 223.232-195.584h240.64q163.84 23.552 177.152 193.536v90.112q-3.072 60.416-39.936 87.040t-86.016 28.672q10.24 35.84 2.048 96.256-5.12 62.464-48.128 103.424t-113.664 46.080h-195.584q-66.56-9.216-110.592-48.128t-49.152-101.376v-300.032zM290.816 299.463q-16.384 29.696 0 59.392t57.344 35.84h291.84q41.984-5.12 59.392-35.84t1.024-59.392-56.32-35.84h-291.84q-44.032 5.12-61.44 35.84zM326.656 569.799q-14.336 27.648 1.024 54.272t56.32 32.768h159.744q41.984-4.096 57.344-30.72t-1.024-54.272-56.32-34.816h-159.744q-41.984 6.144-57.344 32.768z" />
<glyph unicode="&#xe88f;" d="M0 572.871q4.096 176.128 134.144 284.672 138.24 107.52 342.016 109.568 214.016-4.096 344.064-107.52 63.488-54.272 97.28-130.048t34.816-156.672q-4.096-167.936-128-269.312-130.048-102.4-337.92-104.448v-61.44q-2.048-58.368-34.816-106.496t-81.92-71.68q-33.792-16.384-73.728-16.384-48.128 0-96.256 24.576v177.152q41.984-29.696 78.848-19.456 33.792 14.336 33.792 50.176v491.52h174.080v-306.176q59.392 0 113.664 12.288 81.92 20.48 128 60.416 60.416 57.344 60.416 139.264 0 118.784-98.304 180.224-90.112 52.224-214.016 52.224-130.048-4.096-216.064-56.32-46.080-29.696-70.656-76.8t-25.6-99.328q8.192-107.52 48.128-145.408l-109.568-117.76q-48.128 47.104-76.8 123.904-23.552 79.872-25.6 139.264z" horiz-adv-x="952" />
<glyph unicode="&#xe890;" d="M0 455.111q2.048 144.384 77.824 265.216t200.704 184.32l193.536-174.080-453.632-407.552q-18.432 67.584-18.432 132.096zM35.84 266.695l211.968 190.464v-436.224q-147.456 94.208-211.968 245.76zM302.080-6.713v241.664h669.696q-59.392-119.808-171.008-195.584t-242.688-88.064q-138.24-10.24-256 41.984zM331.776 929.223q96.256 31.744 180.224 31.744 109.568 0 209.92-46.080v-337.92zM778.24 289.223v598.016q113.664-72.704 180.224-187.392t65.536-244.736q0-88.064-29.696-165.888h-216.064z" />
<glyph unicode="&#xe894;" d="M2.048 479.687q16.384 11.264 44.032-6.144v493.568h914.432v-493.568q16.384 11.264 33.792 11.264t16.384-13.312q-6.144-18.432-21.504-37.888t-29.696-34.816-44.032-30.72-43.008-24.576-47.104-24.576-38.912-17.408q25.6-83.968 18.432-165.888-10.24-78.848-57.344-132.096t-122.88-56.32q-58.368 0-92.16 48.128-10.24 15.36-10.24 37.888v201.728q-6.144 0-19.456 5.12t-16.384 5.12v-216.064q0-35.84-31.744-61.44t-70.656-24.576q-73.728 0-121.856 56.32t-57.344 134.144q-8.192 83.968 17.408 163.84-121.856 54.272-209.92 141.312-17.408 32.768-10.24 40.96zM98.304 438.727q8.192-3.072 25.6-12.288t26.624-13.312l715.776 8.192q29.696 14.336 39.936 19.456v472.064h-807.936v-474.112zM244.736 541.127q0 50.176 35.84 86.016t86.016 35.84 84.992-35.84 34.816-86.016-34.816-84.992-84.992-34.816-86.016 34.816-35.84 84.992zM530.432 541.127q0 50.176 35.84 86.016t86.016 35.84 84.992-35.84 34.816-86.016-34.816-84.992-84.992-34.816-86.016 34.816-35.84 84.992z" horiz-adv-x="1011" />
<glyph unicode="&#xe895;" d="M0 455.111q0 211.968 150.528 362.496t361.472 149.504 362.496-149.504 149.504-362.496-149.504-362.496-362.496-149.504-361.472 149.504-150.528 362.496zM73.728 455.111q0-167.936 112.64-293.888 53.248 102.4 148.48 169.984t225.28 125.952l-18.432 35.84-17.408 35.84q-211.968-59.392-450.56-61.44v-12.288zM83.968 543.175q199.68 2.048 404.48 54.272-38.912 67.584-162.816 253.952-93.184-44.032-157.696-124.928t-83.968-183.296zM243.712 108.999q118.784-92.16 268.288-92.16 90.112 0 172.032 33.792-33.792 178.176-94.208 332.8-224.256-73.728-346.112-274.432zM407.552 881.095q92.16-121.856 166.912-258.048 153.6 62.464 227.328 159.744-123.904 110.592-289.792 110.592-52.224 0-104.448-12.288zM606.208 559.559q4.096-10.24 13.312-28.672t14.336-31.744 12.288-25.6q149.504 15.36 304.128-16.384-2.048 155.648-98.304 274.432-90.112-110.592-245.76-172.032zM669.696 402.887q39.936-101.376 86.016-311.296 158.72 107.52 188.416 293.888-94.208 25.6-188.416 25.6-46.080-2.048-86.016-8.192z" />
<glyph unicode="&#xe898;" d="M0-56.889v1024h1024v-1024h-1024zM109.568 455.111q0-79.872 56.32-137.216t136.192-56.32 137.216 56.32 56.32 137.216-56.32 136.192-137.216 56.32-136.192-56.32-56.32-136.192zM528.384 455.111q0-79.872 56.32-137.216t137.216-56.32 136.192 56.32 56.32 137.216-56.32 136.192-136.192 56.32-137.216-56.32-56.32-136.192z" />
<glyph unicode="&#xe89a;" d="M0 574.919q2.048 51.2 15.36 79.872t27.648 34.816 40.96 9.216q18.432 235.52 282.624 260.096 97.28 7.168 209.92-32.768 67.584 36.864 151.552 36.864 33.792 0 128-14.336 62.464-16.384 88.064-41.984t24.576-69.632l3.072-92.16q-3.072-30.72-11.264-49.152t-23.552-28.672-21.504-11.264-27.648-7.168q2.048-2.048 9.216-5.12t10.24-6.144 7.168-13.312 6.144-25.6v-113.664q-10.24-28.672-28.672-44.032t-31.744-20.48-37.888-8.192l-44.032 4.096-4.096-377.856q0-13.312-3.072-23.552t-6.144-18.432-9.216-13.312-11.264-9.216-14.336-7.168-13.312-5.12-14.336-4.096-14.336-3.072h-169.984q-75.776 2.048-86.016 98.304-29.696-113.664-109.568-104.448l-146.432 2.048q-19.456 2.048-35.84 6.144t-24.576 12.288-16.384 13.312-10.24 16.384-4.096 17.408-3.072 18.432-2.048 18.432l-2.048 363.52q-25.6 8.192-40.96 19.456t-26.624 46.080-10.24 93.184zM100.352 618.951l2.048-116.736h75.776l-6.144-459.776h156.672v459.776l203.776 4.096v-463.872l155.648-4.096-2.048 467.968h140.288v104.448h-140.288q2.048 21.504 0 44.032t1.024 43.008 10.24 35.84 25.6 22.528 49.152 4.096q70.656-9.216 100.352-33.792l2.048 115.712q-83.968 36.864-194.56 22.528-41.984-6.144-70.656-22.528t-43.008-31.744-22.528-47.104-10.24-49.152-1.024-56.32v-51.2l-196.608 2.048v77.824q2.048 18.432 5.12 28.672t11.264 24.576 25.6 17.408 46.080 5.12q18.432 2.048 90.112-23.552l-2.048 109.568q-79.872 26.624-121.856 26.624-6.144 0-22.528-2.048t-29.696 0q-23.552-4.096-44.032-10.24t-33.792-13.312-25.6-20.48-20.48-22.528-13.312-26.624-9.216-26.624-6.144-28.672-3.072-26.624-1.024-28.672l-1.024-22.528 2.048-31.744z" horiz-adv-x="972" />
<glyph unicode="&#xe89b;" d="M0-56.889v1024h1024v-1024h-1024zM297.984 515.527h77.824v-282.624q2.048-71.68 58.368-103.424 41.984-22.528 105.472-22.528 86.016 0 104.448 2.048 46.080 0 81.92 20.48v121.856q-21.504-14.336-48.128-24.576-44.032-15.36-81.92-5.12-31.744 7.168-48.128 19.456-8.192 8.192-8.192 12.288v262.144h165.888v115.712h-165.888v172.032h-95.232q-4.096-71.68-41.984-121.856t-104.448-50.176v-115.712z" />
<glyph unicode="&#xe89d;" d="M0 455.111q0 211.968 150.528 362.496t361.472 149.504 362.496-149.504 149.504-362.496-149.504-362.496-362.496-149.504-361.472 149.504-150.528 362.496zM56.32 455.111q0-187.392 134.144-321.536t321.536-134.144 321.536 134.144 134.144 321.536-134.144 322.56-321.536 133.12-321.536-133.12-134.144-322.56zM199.68 345.543q-4.096 4.096 0 7.168 8.192 8.192 20.48 6.144t14.336-4.096q13.312-5.12 30.72-26.624t26.624-28.672q48.128-39.936 98.304-6.144 4.096 14.336 13.312 23.552t16.384 14.336 28.672 12.288q-66.56 6.144-107.52 22.528t-64.512 43.008q-32.768 35.84-39.936 94.208t9.216 105.472q12.288 30.72 33.792 54.272-15.36 50.176 6.144 114.688 64.512-4.096 116.736-44.032 99.328 25.6 207.872 2.048 13.312 9.216 43.008 24.576t72.704 17.408q8.192-22.528 11.264-52.224t-3.072-56.32q46.080-48.128 48.128-128 0-63.488-22.528-105.472t-77.824-70.656q-37.888-17.408-100.352-21.504 28.672-14.336 40.96-29.696t17.408-46.080v-63.488t2.048-61.44q6.144-9.216 14.336-16.384t13.312-10.24 4.096-9.216-15.36-6.144q-34.816 0-54.272 24.576-6.144 10.24-6.144 23.552v96.256q0 16.384-8.192 22.528t-15.36 9.216v-125.952q0-33.792 7.168-44.032t10.24-19.456q2.048-2.048-3.072-3.072t-16.384 3.072q-26.624 5.12-36.864 26.624t-9.216 45.056v123.904h-26.624v-123.904q0-23.552-9.216-46.080-14.336-27.648-52.224-29.696-6.144 2.048-6.144 4.096 2.048 2.048 12.288 19.456 2.048 4.096 4.096 16.384t3.072 27.648v125.952q-7.168-2.048-14.336-9.216t-7.168-22.528v-96.256q0-13.312-6.144-23.552-17.408-24.576-54.272-24.576-13.312 0-15.36 6.144-2.048 4.096 1.024 7.168t8.192 7.168 8.192 6.144q8.192 6.144 12.288 15.36 6.144 8.192 3.072 41.984t-1.024 44.032q-52.224-17.408-106.496 18.432-15.36 16.384-31.744 46.080-11.264 21.504-48.128 52.224z" />
<glyph unicode="&#xe8a1;" d="M0 455.111q4.096 214.016 154.624 362.496t357.376 149.504q211.968-4.096 361.472-154.624t150.528-357.376q-4.096-211.968-154.624-361.472t-357.376-150.528q-214.016 4.096-361.472 154.624t-150.528 357.376zM35.84 455.111q2.048-197.632 143.36-335.872t332.8-140.288q197.632 4.096 335.872 144.384t140.288 331.776q-4.096 197.632-144.384 335.872t-331.776 140.288q-197.632-4.096-336.896-144.384t-139.264-331.776zM77.824 424.391q-8.192 110.592 33.792 204.8l209.92-566.272q-111.616 56.32-177.152 158.72-58.368 91.136-66.56 202.752zM148.48 694.727q63.488 92.16 160.768 143.36t202.752 53.248q172.032-4.096 293.888-113.664-48.128 1.024-71.68-40.96-4.096-25.6-6.144-39.936t7.168-35.84 14.336-33.792 18.432-31.744l18.432-30.72q33.792-63.488 7.168-147.456l-63.488-224.256-157.696 470.016q44.032 4.096 47.104 4.096 12.288 4.096 15.36 14.336t-7.168 15.36q-6.144 6.144-11.264 6.144l-96.256-8.192h-71.68q-4.096 0-27.648 4.096t-37.888 2.048-17.408-13.312q-3.072-16.384 14.336-20.48 33.792-4.096 48.128-6.144l69.632-183.296-95.232-284.672-160.768 470.016q44.032 4.096 50.176 4.096 18.432 2.048 16.384 20.48-4.096 15.36-20.48 15.36-71.68-10.24-139.264-8.192zM388.096 37.319l132.096 375.808 136.192-367.616q-134.144-46.080-268.288-8.192zM730.112 77.255q6.144 19.456 21.504 63.488l122.88 354.304q15.36 50.176 23.552 113.664 2.048 28.672-2.048 50.176 77.824-165.888 33.792-319.488-52.224-176.128-199.68-262.144z" />
<glyph unicode="&#xe8a2;" d="M0 67.015v776.192h1024v-776.192h-1024zM363.52 227.783l358.4 225.28-358.4 224.256v-449.536z" />
</font>
</defs>
</svg>
